<!-- Created by FabioRosado(https://github.com/FabioRosado) for 100DaysOf Project - https://github.com/FabioRosado/100daysof -->
<svg xmlns="http://www.w3.org/2000/svg" xmlns:xlink="http://www.w3.org/1999/xlink" width="50" height="50" viewBox="0 0 50 50">
  <defs>
    <clipPath id="clip-Log-1">
      <rect width="50" height="50"/>
    </clipPath>
  </defs>
  <g id="Log-1" clip-path="url(#clip-Log-1)">
    <rect width="50" height="50" fill="#fff"/>
    <circle id="Ellipse_4" data-name="Ellipse 4" cx="24" cy="24" r="24" transform="translate(1 1)" fill="#954ea8"/>
    <path id="Subtraction_2" data-name="Subtraction 2" d="M-2023.349-206.319a24.284,24.284,0,0,1-3.578-.265l-10.185-13.515,26.9.47.369-21.124,10.373,12.81a23.933,23.933,0,0,1-7.719,15.365A23.939,23.939,0,0,1-2023.349-206.319Z" transform="translate(2048.35 255.319)" fill="#5f3273"/>
    <g id="Group_49" data-name="Group 49" transform="translate(1 0.163)">
      <g id="Rectangle_27" data-name="Rectangle 27" transform="translate(10 13.5)" fill="#f5f5f5" stroke="#5d5c5c" stroke-width="0.5">
        <rect width="27.958" height="22.558" rx="2" stroke="none"/>
        <rect x="0.25" y="0.25" width="27.458" height="22.058" rx="1.75" fill="none"/>
      </g>
    </g>
    <g id="Group_65" data-name="Group 65" transform="translate(1.502 22.805)">
      <path id="Rectangle_40" data-name="Rectangle 40" d="M0,0H26.941a0,0,0,0,1,0,0V0a1.42,1.42,0,0,1-1.42,1.42H1.42A1.42,1.42,0,0,1,0,0V0A0,0,0,0,1,0,0Z" transform="translate(10 11.5)" fill="#e2dfdf"/>
    </g>
    <g id="Group_64" data-name="Group 64" transform="translate(1.498 0.314)">
      <path id="Rectangle_37" data-name="Rectangle 37" d="M1.5,0H25.466a1.5,1.5,0,0,1,1.5,1.5V4.593a0,0,0,0,1,0,0H0a0,0,0,0,1,0,0V1.5A1.5,1.5,0,0,1,1.5,0Z" transform="translate(10 13.837)" fill="#ff0f47"/>
    </g>
    <text id="_1" data-name="1" transform="translate(25.5 31.5)" fill="#33dabd" stroke="#29b59d" stroke-width="1" font-size="15" font-family="Roboto-Black, Roboto" font-weight="800"><tspan x="-4.343" y="0">1</tspan></text>
    <circle id="Ellipse_5" data-name="Ellipse 5" cx="1.5" cy="1.5" r="1.5" transform="translate(18 14.6)" fill="#c20035"/>
    <rect id="Rectangle_38" data-name="Rectangle 38" width="2" height="5" rx="1" transform="translate(18.5 12)" fill="#dbd9f4"/>
    <circle id="Ellipse_6" data-name="Ellipse 6" cx="1.5" cy="1.5" r="1.5" transform="translate(29 14.6)" fill="#c20035"/>
    <rect id="Rectangle_39" data-name="Rectangle 39" width="2" height="5" rx="1" transform="translate(29.5 12)" fill="#dbd9f4"/>
  </g>
</svg>
