<!-- Created by FabioRosado(https://github.com/FabioRosado) for 100DaysOf Project - https://github.com/FabioRosado/100daysof -->
<svg xmlns="http://www.w3.org/2000/svg" xmlns:xlink="http://www.w3.org/1999/xlink" width="50" height="50" viewBox="0 0 50 50">
  <defs>
    <clipPath id="clip-Project-1">
      <rect width="50" height="50"/>
    </clipPath>
  </defs>
  <g id="Project-1" clip-path="url(#clip-Project-1)">
    <rect width="50" height="50" fill="#fff"/>
    <g id="Group_58" data-name="Group 58">
      <circle id="Ellipse_4" data-name="Ellipse 4" cx="24" cy="24" r="24" transform="translate(1 1)" fill="#f2c230"/>
      <path id="Subtraction_2" data-name="Subtraction 2" d="M-2023.349-206.319a24,24,0,0,1-7.243-1.112l-9.5-12.607,22.006-17.82,10.936.191,7.7,9.513a23.923,23.923,0,0,1-7.665,15.508A23.931,23.931,0,0,1-2023.349-206.319Z" transform="translate(2048.35 255.319)" fill="#ce9d0c"/>
      <g id="Group_57" data-name="Group 57">
        <g id="Group_56" data-name="Group 56" transform="translate(-4 -3.157)">
          <g id="Group_49" data-name="Group 49" transform="translate(12 16.386)">
            <g id="Rectangle_27" data-name="Rectangle 27" transform="translate(1.102 3.307)" fill="#7cc8ff" stroke="#1436aa" stroke-width="1">
              <rect width="32.897" height="20.25" rx="2" stroke="none"/>
              <rect x="0.5" y="0.5" width="31.897" height="19.25" rx="1.5" fill="none"/>
            </g>
            <g id="Rectangle_34" data-name="Rectangle 34" fill="#7cc8ff" stroke="#1436aa" stroke-width="1">
              <rect width="5.467" height="23.558" rx="2.733" stroke="none"/>
              <rect x="0.5" y="0.5" width="4.467" height="22.558" rx="2.233" fill="none"/>
            </g>
            <g id="Union_1" data-name="Union 1" transform="translate(0 18.228)" fill="#7cc8ff">
              <path d="M 31.13050079345703 4.829800128936768 L 2.626658201217651 4.829800128936768 L 2.591480493545532 4.82852029800415 C 1.41869044303894 4.789619922637939 0.5000004172325134 3.839250087738037 0.5000004172325134 2.664900064468384 C 0.5000004172325134 1.47117006778717 1.471170425415039 0.5000000596046448 2.664900302886963 0.5000000596046448 L 2.885400295257568 0.5000000596046448 C 3.577220439910889 0.5000000596046448 4.233040332794189 0.8349400758743286 4.639710426330566 1.395950078964233 L 4.789430618286133 1.602500081062317 L 5.044540405273438 1.602500081062317 L 31.13050079345703 1.602500081062317 L 31.13050079345703 4.829800128936768 Z" stroke="none"/>
              <path d="M 30.63050079345703 4.329800128936768 L 30.63050079345703 2.102499961853027 L 5.044540405273438 2.102499961853027 L 4.534330368041992 2.102499961853027 L 4.234880447387695 1.689410090446472 C 3.921960353851318 1.257720112800598 3.41748046875 1.00000011920929 2.885400295257568 1.00000011920929 L 2.664900302886963 1.00000011920929 C 1.746870398521423 1.00000011920929 1.000000357627869 1.746870040893555 1.000000357627869 2.664900064468384 C 1.000000357627869 3.568020105361938 1.706340432167053 4.298890113830566 2.608050346374512 4.328800201416016 L 2.636808633804321 4.329800128936768 L 30.63050079345703 4.329800128936768 M 31.63050079345703 5.329800128936768 L 2.574900388717651 5.329800128936768 L 2.574900388717651 5.328249931335449 C 1.145000338554382 5.280819892883301 3.967285238104523e-07 4.10630989074707 3.967285238104523e-07 2.664900064468384 C 3.967285238104523e-07 1.192500114440918 1.193400382995605 6.446838085594209e-08 2.664900302886963 6.446838085594209e-08 L 2.885400295257568 6.446838085594209e-08 C 3.773470401763916 6.446838085594209e-08 4.56026029586792 0.4344200789928436 5.044540405273438 1.102500081062317 L 31.63050079345703 1.102500081062317 L 31.63050079345703 5.329800128936768 Z" stroke="none" fill="#1436aa"/>
            </g>
          </g>
          <path id="Path_80" data-name="Path 80" d="M0,0H27.519V2.2a1.125,1.125,0,0,1-1.147,1.1H0Z" transform="translate(17.464 35.647)" fill="#7cc8ff"/>
        </g>
        <line id="Line_11" data-name="Line 11" x2="20" transform="translate(17.5 32.5)" fill="none" stroke="#0080ff" stroke-width="1"/>
        <path id="Path_81" data-name="Path 81" d="M2002.981,618.6l6.057-6.057,4.964,4.964.909-1,5.53-6.071.284-.194.193,1.9-2.09-2.281s1.676.027,2.352,0" transform="translate(-1985 -589)" fill="none" stroke="#0080ff" stroke-width="1"/>
      </g>
      <text id="_1" data-name="1" transform="translate(25.5 35.5)" fill="#33dabd" stroke="#239a85" stroke-width="1" font-size="28" font-family="Roboto-Black, Roboto" font-weight="800"><tspan x="-8.107" y="0">1</tspan></text>
    </g>
  </g>
</svg>
