<!-- Created by FabioRosado(https://github.com/FabioRosado) for 100DaysOf Project - https://github.com/FabioRosado/100daysof -->
<svg xmlns="http://www.w3.org/2000/svg" xmlns:xlink="http://www.w3.org/1999/xlink" width="50" height="50" viewBox="0 0 50 50">
  <defs>
    <clipPath id="clip-Blog_40_">
      <rect width="50" height="50"/>
    </clipPath>
  </defs>
  <g id="Blog_40_" data-name="Blog 40 " clip-path="url(#clip-Blog_40_)">
    <rect width="50" height="50" fill="#fff"/>
    <g id="Group_48" data-name="Group 48">
      <g id="Group_47" data-name="Group 47">
        <circle id="Ellipse_4" data-name="Ellipse 4" cx="24" cy="24" r="24" transform="translate(1 1)" fill="#ffa300"/>
        <path id="Subtraction_1" data-name="Subtraction 1" d="M-2023.349-206.319a24,24,0,0,1-7.243-1.112l-4.758-6.314v-13.992l23.442-18.984,12.541,15.487c.011.305.017.613.017.915a23.851,23.851,0,0,1-1.886,9.342,23.919,23.919,0,0,1-5.143,7.629,23.918,23.918,0,0,1-7.629,5.143A23.848,23.848,0,0,1-2023.349-206.319Z" transform="translate(2048.35 255.319)" fill="#fa5d0f"/>
        <rect id="Rectangle_22" data-name="Rectangle 22" width="24" height="33" transform="translate(13 8.5)" fill="#fff"/>
        <rect id="Rectangle_23" data-name="Rectangle 23" width="12" height="33" transform="translate(25 8.5)" fill="#f3f5f6"/>
        <g id="Group_33" data-name="Group 33" transform="translate(0 1.25)">
          <line id="Line_4" data-name="Line 4" x2="19" transform="translate(15.5 15.5)" fill="none" stroke="#a7ddfa" stroke-width="2"/>
          <line id="Line_6" data-name="Line 6" x2="19" transform="translate(15.5 23.5)" fill="none" stroke="#a7ddfa" stroke-width="2"/>
          <line id="Line_7" data-name="Line 7" x2="19" transform="translate(15.5 19.5)" fill="none" stroke="#a7ddfa" stroke-width="2"/>
          <line id="Line_9" data-name="Line 9" x2="19" transform="translate(15.5 32)" fill="none" stroke="#a7ddfa" stroke-width="2"/>
          <line id="Line_10" data-name="Line 10" x2="19" transform="translate(15.5 27.5)" fill="none" stroke="#a7ddfa" stroke-width="2"/>
        </g>
        <text id="_40" data-name="40" transform="translate(24.5 30.5)" fill="#33dabd" stroke="#29b59d" stroke-width="1" font-size="15" font-family="Roboto-Black, Roboto" font-weight="800"><tspan x="-8.687" y="0">40</tspan></text>
      </g>
    </g>
  </g>
</svg>
